<?xml version="1.0" encoding="UTF-8"?>
<!DOCTYPE svg PUBLIC "-//W3C//DTD SVG 1.1//EN" "http://www.w3.org/Graphics/SVG/1.1/DTD/svg11.dtd">
<svg xmlns="http://www.w3.org/2000/svg" version="1.1" width="256px" height="256px" style="shape-rendering:geometricPrecision; text-rendering:geometricPrecision; image-rendering:optimizeQuality; fill-rule:evenodd; clip-rule:evenodd" xmlns:xlink="http://www.w3.org/1999/xlink">
<g><path style="opacity:0.998" fill="#abd33d" d="M 23.5,-0.5 C 92.8333,-0.5 162.167,-0.5 231.5,-0.5C 243.167,3.83333 251.167,11.8333 255.5,23.5C 255.5,64.8333 255.5,106.167 255.5,147.5C 194.153,127.112 145.986,143.779 111,197.5C 100.426,215.647 92.9258,234.98 88.5,255.5C 66.8333,255.5 45.1667,255.5 23.5,255.5C 11.8333,251.167 3.83333,243.167 -0.5,231.5C -0.5,162.167 -0.5,92.8333 -0.5,23.5C 3.83333,11.8333 11.8333,3.83333 23.5,-0.5 Z"/></g>
<g><path style="opacity:1" fill="#fefefe" d="M 52.5,41.5 C 102.168,41.3333 151.834,41.5 201.5,42C 213.717,47.4094 216.884,56.2427 211,68.5C 208.635,71.8691 205.468,74.0357 201.5,75C 151.833,75.6667 102.167,75.6667 52.5,75C 41.465,68.893 38.6317,60.0597 44,48.5C 46.4412,45.5464 49.2745,43.2131 52.5,41.5 Z"/></g>
<g><path style="opacity:1" fill="#fefefe" d="M 52.5,110.5 C 73.5026,110.333 94.5026,110.5 115.5,111C 124.833,114.683 128.666,121.516 127,131.5C 125.573,137.925 121.74,142.092 115.5,144C 94.5,144.667 73.5,144.667 52.5,144C 41.465,137.893 38.6317,129.06 44,117.5C 46.4412,114.546 49.2745,112.213 52.5,110.5 Z"/></g>
<g><path style="opacity:0.998" fill="#343434" d="M 255.5,147.5 C 255.5,175.5 255.5,203.5 255.5,231.5C 251.167,243.167 243.167,251.167 231.5,255.5C 183.833,255.5 136.167,255.5 88.5,255.5C 92.9258,234.98 100.426,215.647 111,197.5C 145.986,143.779 194.153,127.112 255.5,147.5 Z"/></g>
<g><path style="opacity:1" fill="#fefefc" d="M 52.5,179.5 C 70.6889,178.515 77.8555,186.848 74,204.5C 67.4181,213.777 58.9181,215.944 48.5,211C 41.0995,203.968 39.5995,195.801 44,186.5C 46.4412,183.546 49.2745,181.213 52.5,179.5 Z"/></g>
<g><path style="opacity:1" fill="#989898" d="M 166.5,179.5 C 164.5,179.5 162.5,179.5 160.5,179.5C 160.5,190.833 160.5,202.167 160.5,213.5C 159.505,202.012 159.172,190.345 159.5,178.5C 162.059,178.198 164.393,178.532 166.5,179.5 Z"/></g>
<g><path style="opacity:1" fill="#f8f8f8" d="M 166.5,179.5 C 166.5,184.167 166.5,188.833 166.5,193.5C 176.167,193.833 180.833,189.167 180.5,179.5C 182.5,179.5 184.5,179.5 186.5,179.5C 187.187,186.454 184.854,192.12 179.5,196.5C 184.854,200.88 187.187,206.546 186.5,213.5C 184.5,213.5 182.5,213.5 180.5,213.5C 180.833,203.833 176.167,199.167 166.5,199.5C 166.5,204.167 166.5,208.833 166.5,213.5C 164.5,213.5 162.5,213.5 160.5,213.5C 160.5,202.167 160.5,190.833 160.5,179.5C 162.5,179.5 164.5,179.5 166.5,179.5 Z"/></g>
<g><path style="opacity:1" fill="#f3f3f3" d="M 197.5,178.5 C 202.833,178.5 208.167,178.5 213.5,178.5C 213.5,180.833 213.5,183.167 213.5,185.5C 209.167,185.5 204.833,185.5 200.5,185.5C 200.5,188.167 200.5,190.833 200.5,193.5C 203.833,193.5 207.167,193.5 210.5,193.5C 210.5,195.5 210.5,197.5 210.5,199.5C 207.167,199.5 203.833,199.5 200.5,199.5C 200.5,204.167 200.5,208.833 200.5,213.5C 198.5,213.5 196.5,213.5 194.5,213.5C 194.333,202.828 194.5,192.161 195,181.5C 196.045,180.627 196.878,179.627 197.5,178.5 Z"/></g>
</svg>
